:SAMPLES-PER-SECOND 30
:FULLY-SPECIFIED
:DEGREES
533
root  15.3473 40.3062 6.17566 119 -76.8252 -127.949
RightUpLeg  -38.7001 -16.9026 -14.4144
RightLeg  56.2068 -2.72926 -4.82171
RightFoot  31.1933 -9.82396 25.4928
RightToes  -5.28226e-011 1.30204e-014 -6.03759e-014
Spine  25.2998 -4.65265 -19.7646
Spine1  -1.38766 -13.2374 27.4971
HEad  -7.67943 21.7134 -3.77313
LeftShoulder1  1.68357 -6.21964 -10.0075
LeftArm  -26.0167 28.2047 -51.6432
LeftForeArm  -31.5587 -0.410736 -7.40669
LeftHand  0.508873 7.1658 32.0854
RightShoulder  1.03484 0.567417 19.0293
RightArm  -6.52371 -35.7287 50.3392
RightForeArm  -21.7064 31.5566 8.02371
RightHand  -1.64264 0.687332 -30.8775
LeftUpLeg  6.68946 15.2174 26.1816
LeftLeg  19.4523 11.8214 5.96503
LeftFoot  0.106708 2.65878 -26.1373
LeftToes  -2.75829e-010 5.07641e-011 -5.51782e-011
534
root  15.3748 39.9318 6.57884 124.51 -76.6423 -134.207
RightUpLeg  -39.0499 -16.2334 -16.3459
RightLeg  58.0158 -2.83863 -5.36028
RightFoot  28.8123 -9.03994 24.9602
RightToes  -5.28226e-011 1.30204e-014 -6.03759e-014
Spine  24.5052 -3.68734 -20.0729
Spine1  -0.215119 -12.3776 25.9648
HEad  -8.35536 20.1509 -3.6581
LeftShoulder1  1.57712 -5.85143 -9.49844
LeftArm  -26.6218 26.3397 -51.8625
LeftForeArm  -33.3004 -2.64374 -7.30822
LeftHand  0.507255 7.17067 31.9045
RightShoulder  0.967205 0.333713 18.8065
RightArm  -6.3695 -37.758 49.264
RightForeArm  -22.0157 33.4928 8.5765
RightHand  -1.56471 0.45125 -30.6117
LeftUpLeg  7.91255 15.6252 25.2812
LeftLeg  20.3007 12.2667 6.24341
LeftFoot  -3.52303 1.80244 -25.6763
LeftToes  -2.75829e-010 5.07641e-011 -5.51782e-011
535
root  15.3982 39.5714 6.91547 127.726 -76.5652 -137.69
RightUpLeg  -38.3577 -15.6702 -17.6631
RightLeg  58.0795 -5.00905 -9.01821
RightFoot  25.6623 -7.29064 22.0939
RightToes  -5.28226e-011 1.30204e-014 -6.03759e-014
Spine  23.4354 -2.65016 -20.1921
Spine1  1.08474 -11.4645 25.1327
HEad  -9.11647 18.003 -3.30559
LeftShoulder1  1.51421 -5.59809 -9.25191
LeftArm  -25.6656 23.8561 -52.0959
LeftForeArm  -33.1327 -4.9176 -7.96412
LeftHand  0.426958 6.90724 31.5222
RightShoulder  0.936801 0.200293 18.9051
RightArm  -5.14574 -37.7244 48.3053
RightForeArm  -24.2424 31.8685 8.209
RightHand  -1.5623 0.367412 -30.9892
LeftUpLeg  8.02238 15.208 24.0189
LeftLeg  21.5724 12.9498 6.71404
LeftFoot  -7.31404 0.932333 -24.8625
LeftToes  -2.75829e-010 5.07641e-011 -5.51782e-011
536
root  15.4176 39.3735 7.16963 129.009 -76.5563 -138.603
RightUpLeg  -36.4958 -14.8999 -18.1762
RightLeg  55.6993 -7.20145 -11.5922
RightFoot  23.6402 -5.76341 18.7043
RightToes  -5.28226e-011 1.30204e-014 -6.03759e-014
Spine  21.9328 -1.85641 -19.6921
Spine1  2.52217 -10.5563 24.2054
HEad  -9.86409 15.2576 -2.7916
LeftShoulder1  1.53166 -5.4028 -9.8756
LeftArm  -23.2273 21.0448 -51.4636
LeftForeArm  -32.4232 -7.56379 -9.04506
LeftHand  0.339186 6.60207 31.2965
RightShoulder  0.931654 0.143093 19.1845
RightArm  -3.20203 -35.9292 48.3808
RightForeArm  -27.2388 27.1519 7.13888
RightHand  -1.52307 0.209656 -31.0579
LeftUpLeg  7.09134 14.1598 22.4772
LeftLeg  22.7255 14.6734 7.75686
LeftFoot  -9.47925 0.440419 -23.4672
LeftToes  -2.75829e-010 5.07641e-011 -5.51782e-011
537
root  15.4356 39.3558 7.28832 129.462 -76.6186 -138.475
RightUpLeg  -33.4099 -13.7848 -18.1669
RightLeg  51.0478 -8.45992 -11.4011
RightFoot  23.402 -5.32262 17.4362
RightToes  -5.28226e-011 1.30204e-014 -6.03759e-014
Spine  20.3871 -1.25432 -18.7425
Spine1  3.71328 -9.56001 22.7866
HEad  -10.0621 12.1084 -1.83833
LeftShoulder1  1.6564 -5.39978 -11.4349
LeftArm  -18.9162 18.9491 -50
LeftForeArm  -33.8502 -11.5557 -9.69755
LeftHand  0.257703 6.33208 30.6119
RightShoulder  0.968261 0.231963 19.5821
RightArm  -4.26927 -32.8768 49.0855
RightForeArm  -26.6135 19.698 7.58003
RightHand  -1.31831 -0.341162 -29.8279
LeftUpLeg  6.12423 13.3002 21.477
LeftLeg  23.2152 16.3914 8.70398
LeftFoot  -9.66869 0.393032 -22.7379
LeftToes  -2.75829e-010 5.07641e-011 -5.51782e-011
538
root  15.4309 39.4295 7.23953 130.474 -77.062 -139.03
RightUpLeg  -29.3786 -12.8015 -18.1452
RightLeg  44.7384 -9.12339 -9.83338
RightFoot  24.1127 -5.7126 18.2754
RightToes  -5.28226e-011 1.30204e-014 -6.03759e-014
Spine  19.1825 -0.73022 -17.8416
Spine1  4.04752 -8.35881 20.7118
HEad  -9.39614 8.63119 -0.193037
LeftShoulder1  1.80413 -5.48549 -13.0617
LeftArm  -12.1795 18.1041 -48.7391
LeftForeArm  -37.5735 -16.689 -8.90165
LeftHand  0.128077 5.88755 28.8497
RightShoulder  1.05814 0.533168 19.8904
RightArm  -15.8147 -29.7004 49.6485
RightForeArm  -14.5076 10.2321 11.3792
RightHand  -1.00629 -1.19181 -27.4511
LeftUpLeg  5.78163 13.3907 20.9676
LeftLeg  22.6583 16.5419 8.68572
LeftFoot  -8.90627 0.54539 -22.882
LeftToes  -2.75829e-010 5.07641e-011 -5.51782e-011
539
root  15.3785 39.5207 7.07285 132.588 -78.1411 -140.563
RightUpLeg  -24.9563 -12.4063 -18.3703
RightLeg  37.1443 -9.18398 -7.65691
RightFoot  25.934 -6.25561 18.9606
RightToes  -5.28226e-011 1.30204e-014 -6.03759e-014
Spine  18.2175 -0.332162 -16.8291
Spine1  3.27821 -6.8892 17.7339
HEad  -8.1158 4.53497 1.82488
LeftShoulder1  1.8525 -5.38788 -13.9018
LeftArm  -6.17016 17.8961 -48.4307
LeftForeArm  -38.3602 -20.8741 -7.43735
LeftHand  -0.0797494 5.04026 26.2961
RightShoulder  1.16641 0.93803 19.9314
RightArm  -21.2281 -27.6354 51.0598
RightForeArm  -7.90006 3.81237 11.6589
RightHand  -0.729222 -2.02719 -24.8787
LeftUpLeg  5.70748 14.0448 20.1067
LeftLeg  21.1252 15.757 8.00403
LeftFoot  -7.9337 0.734723 -22.857
LeftToes  -2.75829e-010 5.07641e-011 -5.51782e-011
540
root  15.265 39.5836 6.83851 135.197 -79.7325 -142.063
RightUpLeg  -20.5658 -12.1182 -18.6503
RightLeg  28.8162 -7.51559 -4.71092
RightFoot  29.8803 -6.81775 18.5747
RightToes  -5.28226e-011 1.30204e-014 -6.03759e-014
Spine  17.0954 -0.144188 -15.1268
Spine1  1.73471 -5.22174 13.6882
HEad  -6.63231 -0.229479 3.5059
LeftShoulder1  1.79601 -5.08549 -13.9826
LeftArm  -1.9047 17.5133 -48.796
LeftForeArm  -34.8338 -23.0448 -6.68225
LeftHand  -0.308596 3.90574 23.7841
RightShoulder  1.26564 1.32684 19.8557
RightArm  -21.35 -26.9918 52.8083
RightForeArm  -4.05421 1.57257 11.537
RightHand  -0.546363 -2.61332 -22.5435
LeftUpLeg  5.20871 14.4171 18.6845
LeftLeg  19.2024 15.4893 7.3798
LeftFoot  -7.00008 0.896042 -22.289
LeftToes  -2.75829e-010 5.07641e-011 -5.51782e-011
541
root  15.0912 39.567 6.51841 138.16 -81.6884 -143.514
RightUpLeg  -16.2421 -10.9679 -18.8846
RightLeg  20.9972 -4.9898 -2.289
RightFoot  34.1232 -7.51632 18.4081
RightToes  -5.28226e-011 1.30204e-014 -6.03759e-014
Spine  15.6441 -0.0429448 -12.9845
Spine1  0.0459469 -3.56199 8.96142
HEad  -5.19544 -5.10252 4.27598
LeftShoulder1  1.73017 -4.81127 -13.8711
LeftArm  2.28348 16.928 -48.9924
LeftForeArm  -30.9807 -23.9171 -6.50784
LeftHand  -0.45403 3.00517 21.8318
RightShoulder  1.36383 1.70643 19.8224
RightArm  -20.5525 -27.2886 54.0963
RightForeArm  1.59719 1.95747 12.133
RightHand  -0.471292 -2.75436 -20.4763
LeftUpLeg  4.27462 14.3707 17.1305
LeftLeg  17.3801 15.5802 6.76701
LeftFoot  -6.43261 0.9842 -21.8261
LeftToes  -2.75829e-010 5.07641e-011 -5.51782e-011
542
root  14.8762 39.4851 6.11332 145.249 -84.0411 -149.217
RightUpLeg  -11.9639 -9.31416 -19.4434
RightLeg  14.7226 -5.53342 -1.83789
RightFoot  34.2561 -7.8272 19.0903
RightToes  -5.28226e-011 1.30204e-014 -6.03759e-014
Spine  14.09 0.171397 -11.2851
Spine1  -1.18203 -2.0888 4.33023
HEad  -4.09611 -9.42563 4.02883
LeftShoulder1  1.7235 -4.72349 -14.0251
LeftArm  6.58094 16.4363 -48.4208
LeftForeArm  -29.203 -24.4564 -6.54019
LeftHand  -0.49421 2.59259 20.3105
RightShoulder  1.44833 2.05544 19.6844
RightArm  -17.3882 -27.6614 54.9137
RightForeArm  6.1648 4.36478 12.9606
RightHand  -0.492179 -2.43235 -19.0713
LeftUpLeg  3.66276 13.9917 15.384
LeftLeg  15.319 15.4513 5.77552
LeftFoot  -6.10091 1.03932 -21.6858
LeftToes  -2.75829e-010 5.07641e-011 -5.51782e-011
